<?xml version="1.0" encoding="UTF-8"?>
<svg version="1.1" xmlns="http://www.w3.org/2000/svg" width="512" height="512">
<path d="M0 0 C0.90182007 -0.00705963 1.80364014 -0.01411926 2.73278809 -0.02139282 C40.36975173 -0.24909119 40.36975173 -0.24909119 57.3046875 3.203125 C58.33078125 3.40711914 59.356875 3.61111328 60.4140625 3.82128906 C109.90223247 13.89189711 153.72299407 36.36188218 190.3046875 71.203125 C191.2030835 72.05849854 191.2030835 72.05849854 192.11962891 72.93115234 C200.46278828 80.93412612 208.10813937 89.15292341 214.99414062 98.44384766 C216.32265841 100.22724913 217.67828787 101.98722016 219.0390625 103.74609375 C226.39835721 113.37178612 232.51238704 123.57171638 238.3046875 134.203125 C238.6665918 134.8636084 239.02849609 135.5240918 239.40136719 136.20458984 C251.53086932 158.61224905 259.40373476 182.63880931 264.5546875 207.515625 C264.70599121 208.24241455 264.85729492 208.9692041 265.01318359 209.71801758 C267.99385718 225.05417259 268.67953874 240.24398383 268.6171875 255.828125 C268.61503235 256.79901062 268.6128772 257.76989624 268.61065674 258.77020264 C268.55961577 273.10563526 268.17690598 287.11338303 265.3046875 301.203125 C265.10069336 302.22921875 264.89669922 303.2553125 264.68652344 304.3125 C257.34608187 340.38430604 243.70191877 374.14340197 222.3046875 404.203125 C221.85013184 404.84701172 221.39557617 405.49089844 220.92724609 406.15429688 C213.48970274 416.61533555 205.26387749 426.02621168 196.3046875 435.203125 C195.74072266 435.78755371 195.17675781 436.37198242 194.59570312 436.97412109 C187.55411628 444.26310399 180.31244739 450.96609511 172.3046875 457.203125 C171.36882812 457.96753906 170.43296875 458.73195313 169.46875 459.51953125 C159.68042585 467.35773941 149.08566092 473.82589052 138.3046875 480.203125 C137.65306641 480.59242188 137.00144531 480.98171875 136.33007812 481.3828125 C99.51065502 503.12302681 55.46682743 512.67310734 13.0546875 512.578125 C12.09313751 512.57724884 11.13158752 512.57637268 10.14089966 512.57546997 C-26.38898685 512.4662292 -60.21876992 504.74810557 -93.6953125 490.203125 C-94.90445313 489.67976563 -96.11359375 489.15640625 -97.359375 488.6171875 C-113.96768137 481.20325299 -129.48055083 471.54005149 -143.6953125 460.203125 C-144.51515625 459.5740625 -145.335 458.945 -146.1796875 458.296875 C-160.35240793 447.28367823 -174.55803427 434.31998676 -185.6953125 420.203125 C-186.42878906 419.2853125 -187.16226563 418.3675 -187.91796875 417.421875 C-215.04409928 383.08527154 -232.18176818 344.02638741 -240.6953125 301.203125 C-240.87610352 300.31625 -241.05689453 299.429375 -241.24316406 298.515625 C-246.57051789 271.06333648 -246.27592993 238.57898803 -240.6953125 211.203125 C-240.49131836 210.17703125 -240.28732422 209.1509375 -240.07714844 208.09375 C-230.05373449 158.83749749 -207.81647709 114.35253961 -172.6953125 78.203125 C-172.11668457 77.59871582 -171.53805664 76.99430664 -170.94189453 76.37158203 C-162.9375369 68.026704 -154.72641254 60.38679241 -145.43261719 53.50048828 C-143.71155394 52.21525358 -142.0189245 50.8989234 -140.328125 49.57421875 C-123.42900027 36.52350404 -104.45091971 26.21259404 -84.6953125 18.203125 C-83.92445313 17.88794922 -83.15359375 17.57277344 -82.359375 17.24804688 C-56.56363092 6.84723761 -27.89387717 0.14562078 0 0 Z " fill="#000000" transform="translate(243.6953125,-0.203125)"/>
<path d="M0 0 C15.943125 -0.061875 31.88625 -0.12375 48.3125 -0.1875 C53.30802002 -0.21481201 58.30354004 -0.24212402 63.45043945 -0.27026367 C69.64880371 -0.28381348 69.64880371 -0.28381348 72.56950378 -0.28633118 C74.56785601 -0.29087562 76.56620111 -0.30129363 78.5644989 -0.31672668 C104.532106 -0.50688755 132.54299226 1.51774903 152.30859375 20.1796875 C162.45286427 30.61477184 166.86108871 42.77481898 169.54953003 56.73805237 C169.8473613 58.23355438 170.16596005 59.72508528 170.50617981 61.21151733 C171.90628919 67.5244163 172.32093404 73.53777954 172.3359375 79.9921875 C172.3459227 81.53122238 172.3459227 81.53122238 172.35610962 83.10134888 C172.36617893 85.26448798 172.37092843 87.42765779 172.37060547 89.59082031 C172.37494237 92.83192964 172.41122443 96.07163401 172.44921875 99.3125 C172.58083814 123.87148078 169.01020443 150.17455928 151.41015625 168.71484375 C134.9754483 184.29718435 110.94560285 188.20137461 89.00390625 188.11352539 C88.02163559 188.11364593 87.03936493 188.11376646 86.02732849 188.11389065 C82.87236199 188.11314892 79.71745582 188.1055546 76.5625 188.09765625 C74.604818 188.09618454 72.6471356 188.09516524 70.68945312 188.09460449 C63.45962939 188.08937818 56.22981409 188.07541691 49 188.0625 C32.83 188.041875 16.66 188.02125 0 188 C0 125.96 0 63.92 0 0 Z " fill="#FDFDFD" transform="translate(176,162)"/>
<path d="M0 0 C39.52380952 0 39.52380952 0 46 5 C48.40053778 8.61246436 48.25946074 11.9105589 48.2746582 16.16772461 C48.27976913 16.88204147 48.28488007 17.59635834 48.29014587 18.33232117 C48.30402404 20.68908105 48.3030865 23.04554791 48.30078125 25.40234375 C48.30466914 27.04374805 48.309004 28.68515135 48.31376648 30.32655334 C48.32122484 33.7655056 48.32094019 37.20435519 48.31567383 40.64331055 C48.30987939 45.04616581 48.3268112 49.44860036 48.3500185 53.85138607 C48.36476368 57.24091542 48.36562649 60.63034363 48.36250877 64.01989937 C48.36302158 65.64297888 48.36825178 67.26606411 48.37832069 68.88911247 C48.39068342 71.16064522 48.38389512 73.4313608 48.37231445 75.70288086 C48.37294388 76.99431503 48.3735733 78.28574921 48.3742218 79.61631775 C47.97118864 83.26050991 47.23093933 85.1202041 45 88 C32.47813895 95.15534917 12.50927664 92 0 92 C0 61.64 0 31.28 0 0 Z " fill="#010101" transform="translate(236,210)"/>
<path d="" fill="#000000" transform="translate(0,0)"/>
</svg>
